<svg width="15" height="15" viewBox="0 0 15 15" fill="none" xmlns="http://www.w3.org/2000/svg">
<path d="M6.75 8.25C6.75 8.05109 6.82902 7.86032 6.96967 7.71967C7.11032 7.57902 7.30109 7.5 7.5 7.5C7.69891 7.5 7.88968 7.57902 8.03033 7.71967C8.17098 7.86032 8.25 8.05109 8.25 8.25V10.5C8.25 10.6989 8.17098 10.8897 8.03033 11.0303C7.88968 11.171 7.69891 11.25 7.5 11.25C7.30109 11.25 7.11032 11.171 6.96967 11.0303C6.82902 10.8897 6.75 10.6989 6.75 10.5V8.25ZM7.5 4.125C7.20163 4.125 6.91548 4.24353 6.7045 4.4545C6.49353 4.66548 6.375 4.95163 6.375 5.25C6.375 5.54837 6.49353 5.83452 6.7045 6.0455C6.91548 6.25647 7.20163 6.375 7.5 6.375C7.79837 6.375 8.08452 6.25647 8.2955 6.0455C8.50647 5.83452 8.625 5.54837 8.625 5.25C8.625 4.95163 8.50647 4.66548 8.2955 4.4545C8.08452 4.24353 7.79837 4.125 7.5 4.125ZM0 7.5C0 5.51088 0.790176 3.60322 2.1967 2.1967C3.60322 0.790176 5.51088 0 7.5 0C9.48912 0 11.3968 0.790176 12.8033 2.1967C14.2098 3.60322 15 5.51088 15 7.5C15 9.48912 14.2098 11.3968 12.8033 12.8033C11.3968 14.2098 9.48912 15 7.5 15C5.51088 15 3.60322 14.2098 2.1967 12.8033C0.790176 11.3968 0 9.48912 0 7.5ZM7.5 1.5C5.9087 1.5 4.38258 2.13214 3.25736 3.25736C2.13214 4.38258 1.5 5.9087 1.5 7.5C1.5 9.0913 2.13214 10.6174 3.25736 11.7426C4.38258 12.8679 5.9087 13.5 7.5 13.5C9.0913 13.5 10.6174 12.8679 11.7426 11.7426C12.8679 10.6174 13.5 9.0913 13.5 7.5C13.5 5.9087 12.8679 4.38258 11.7426 3.25736C10.6174 2.13214 9.0913 1.5 7.5 1.5Z" fill="white"/>
</svg>
