<svg width="17" height="18" viewBox="0 0 17 18" fill="none" xmlns="http://www.w3.org/2000/svg">
<path d="M7.65 10.2256C7.65 10.0002 7.73955 9.78398 7.89896 9.62457C8.05837 9.46516 8.27457 9.37561 8.5 9.37561C8.72543 9.37561 8.94164 9.46516 9.10104 9.62457C9.26045 9.78398 9.35 10.0002 9.35 10.2256V12.7756C9.35 13.001 9.26045 13.2172 9.10104 13.3767C8.94164 13.5361 8.72543 13.6256 8.5 13.6256C8.27457 13.6256 8.05837 13.5361 7.89896 13.3767C7.73955 13.2172 7.65 13.001 7.65 12.7756V10.2256ZM8.5 5.55061C8.16185 5.55061 7.83755 5.68494 7.59844 5.92405C7.35933 6.16316 7.225 6.48746 7.225 6.82561C7.225 7.16376 7.35933 7.48806 7.59844 7.72717C7.83755 7.96628 8.16185 8.10061 8.5 8.10061C8.83815 8.10061 9.16245 7.96628 9.40156 7.72717C9.64067 7.48806 9.775 7.16376 9.775 6.82561C9.775 6.48746 9.64067 6.16316 9.40156 5.92405C9.16245 5.68494 8.83815 5.55061 8.5 5.55061ZM0 9.37561C0 7.12127 0.895533 4.95926 2.48959 3.3652C4.08365 1.77114 6.24566 0.87561 8.5 0.87561C10.7543 0.87561 12.9163 1.77114 14.5104 3.3652C16.1045 4.95926 17 7.12127 17 9.37561C17 11.63 16.1045 13.792 14.5104 15.386C12.9163 16.9801 10.7543 17.8756 8.5 17.8756C6.24566 17.8756 4.08365 16.9801 2.48959 15.386C0.895533 13.792 0 11.63 0 9.37561ZM8.5 2.57561C6.69653 2.57561 4.96692 3.29204 3.69167 4.56728C2.41643 5.84253 1.7 7.57214 1.7 9.37561C1.7 11.1791 2.41643 12.9087 3.69167 14.1839C4.96692 15.4592 6.69653 16.1756 8.5 16.1756C10.3035 16.1756 12.0331 15.4592 13.3083 14.1839C14.5836 12.9087 15.3 11.1791 15.3 9.37561C15.3 7.57214 14.5836 5.84253 13.3083 4.56728C12.0331 3.29204 10.3035 2.57561 8.5 2.57561Z" fill="white" fill-opacity="0.6"/>
</svg>
