<svg width="190" height="28" viewBox="0 0 190 28" fill="none" xmlns="http://www.w3.org/2000/svg">
<path fill-rule="evenodd" clip-rule="evenodd" d="M0.00057676 17.011C0.000258224 17.011 0 17.0107 0 17.0104V9.36756C0 9.01789 0.361813 8.78549 0.67981 8.93091L10.9822 13.6422C11.1805 13.7328 11.4149 13.6786 11.5531 13.51L21.7824 1.03803C22.0684 0.68937 22.6338 0.89158 22.6338 1.34252C22.6338 6.42729 22.6338 11.5121 22.6338 16.5968C22.6338 18.6966 22.1787 20.462 20.8795 21.3552C18.3402 23.2467 15.7998 25.1382 13.2606 27.0297C12.7088 27.3583 12.0137 27.5908 11.3277 27.5908C10.6041 27.5908 10.0182 27.4659 9.3129 26.98C6.79525 25.1116 4.27761 23.2444 1.75996 21.376C0.771417 20.5593 0.0649639 19.2961 0.00115352 17.0116C0.0011448 17.0113 0.000889034 17.011 0.00057676 17.011Z" fill="url(#paint0_linear_327_22)"/>
<path fill-rule="evenodd" clip-rule="evenodd" d="M0.473158 19.6025C0.473361 19.6025 0.473562 19.6025 0.473744 19.6024L11.2081 14.3231C11.2327 14.311 11.2562 14.3413 11.2383 14.3621L5.05711 21.5348C5.03435 21.5625 5.01046 21.5903 4.98657 21.6169L4.98316 21.6204C4.63162 22.0057 4.12877 22.2463 3.57132 22.2463C3.14316 22.2463 2.74788 22.1045 2.42736 21.8635C2.42625 21.8626 2.42508 21.8619 2.42385 21.8612L2.38308 21.84C2.38191 21.8394 2.38079 21.8387 2.37974 21.8379L1.75675 21.3763C1.23043 20.9416 0.783615 20.3798 0.471928 19.6044C0.471577 19.6035 0.472216 19.6025 0.473158 19.6025Z" fill="url(#paint1_linear_327_22)"/>
<path d="M48.601 10.1375C48.601 9.5419 48.5365 9.07035 48.4074 8.7229C48.2784 8.37544 48.0649 8.11236 47.7671 7.93367C47.4693 7.75498 47.0772 7.64081 46.5907 7.59118C46.1093 7.54154 45.5111 7.51672 44.7964 7.51672H41.4533C40.818 7.51672 40.2819 7.53658 39.8451 7.57629C39.4133 7.61103 39.0559 7.68549 38.7729 7.79965C38.49 7.91382 38.2716 8.07762 38.1177 8.29106C37.9639 8.50449 37.8522 8.78742 37.7827 9.13984C37.7132 9.49226 37.6735 9.92659 37.6636 10.4428C37.6536 10.9541 37.6487 11.5671 37.6487 12.2818C37.6487 12.9966 37.6536 13.6121 37.6636 14.1283C37.6785 14.6396 37.7206 15.0714 37.7901 15.4239C37.8596 15.7763 37.9688 16.0592 38.1177 16.2726C38.2716 16.4861 38.49 16.6499 38.7729 16.764C39.0559 16.8782 39.4133 16.9551 39.8451 16.9949C40.2819 17.0296 40.818 17.047 41.4533 17.047H44.7964C45.3523 17.047 45.8313 17.0321 46.2333 17.0023C46.6354 16.9725 46.9779 16.9179 47.2608 16.8385C47.5438 16.7591 47.7721 16.6499 47.9458 16.5109C48.1195 16.3719 48.2536 16.1982 48.3479 15.9897C48.4471 15.7763 48.5142 15.5231 48.5489 15.2303C48.5836 14.9325 48.601 14.585 48.601 14.1879H50.0306C50.0306 14.6644 50.0008 15.0963 49.9412 15.4834C49.8816 15.8656 49.7749 16.2081 49.6211 16.5109C49.4721 16.8087 49.2711 17.0668 49.018 17.2852C48.7648 17.5036 48.4447 17.6848 48.0575 17.8288C47.6703 17.9677 47.2087 18.0695 46.6726 18.134C46.1366 18.2035 45.5111 18.2383 44.7964 18.2383H41.4533C40.5797 18.2383 39.8426 18.1837 39.242 18.0745C38.6464 17.9702 38.155 17.8114 37.7678 17.5979C37.3806 17.3795 37.0803 17.1065 36.8669 16.7789C36.6584 16.4513 36.5045 16.0666 36.4053 15.6249C36.311 15.1831 36.2564 14.6843 36.2415 14.1283C36.2266 13.5724 36.2191 12.9569 36.2191 12.2818C36.2191 11.6068 36.2266 10.9913 36.2415 10.4354C36.2564 9.87943 36.311 9.38058 36.4053 8.93881C36.5045 8.49705 36.6584 8.11236 36.8669 7.78476C37.0803 7.45716 37.3806 7.18664 37.7678 6.9732C38.155 6.7548 38.6464 6.59348 39.242 6.48924C39.8426 6.38004 40.5797 6.32544 41.4533 6.32544H44.7964C45.5111 6.32544 46.1366 6.36019 46.6726 6.42968C47.2087 6.49421 47.6703 6.59596 48.0575 6.73494C48.4447 6.86896 48.7648 7.04021 49.018 7.24868C49.2711 7.45716 49.4721 7.70286 49.6211 7.98579C49.7749 8.26872 49.8816 8.58888 49.9412 8.94626C50.0008 9.30364 50.0306 9.70074 50.0306 10.1375H48.601ZM53.4689 6.5637H55.3749L60.6166 12.1627L65.8582 6.5637H67.7643L61.3314 13.2349V18H59.9018V13.2349L53.4689 6.5637ZM71.8504 18V6.5637H82.8102V7.75498H73.2799V11.5671H82.3336V12.7584H73.2799V18H71.8504ZM95.3022 6.32544C96.1758 6.32544 96.9105 6.38004 97.5061 6.48924C98.1067 6.59348 98.6006 6.7548 98.9878 6.9732C99.3749 7.18664 99.6727 7.45716 99.8812 7.78476C100.09 8.11236 100.241 8.49705 100.335 8.93881C100.435 9.38058 100.492 9.87943 100.507 10.4354C100.527 10.9913 100.536 11.6068 100.536 12.2818C100.536 12.9569 100.527 13.5724 100.507 14.1283C100.492 14.6843 100.435 15.1831 100.335 15.6249C100.241 16.0666 100.09 16.4513 99.8812 16.7789C99.6727 17.1065 99.3749 17.3795 98.9878 17.5979C98.6006 17.8114 98.1067 17.9702 97.5061 18.0745C96.9105 18.1837 96.1758 18.2383 95.3022 18.2383H90.9987C90.1251 18.2383 89.388 18.1837 88.7874 18.0745C88.1918 17.9702 87.7004 17.8114 87.3132 17.5979C86.926 17.3795 86.6257 17.1065 86.4123 16.7789C86.2038 16.4513 86.0499 16.0666 85.9507 15.6249C85.8564 15.1831 85.8018 14.6843 85.7869 14.1283C85.772 13.5724 85.7645 12.9569 85.7645 12.2818C85.7645 11.6068 85.772 10.9913 85.7869 10.4354C85.8018 9.87943 85.8564 9.38058 85.9507 8.93881C86.0499 8.49705 86.2038 8.11236 86.4123 7.78476C86.6257 7.45716 86.926 7.18664 87.3132 6.9732C87.7004 6.7548 88.1918 6.59348 88.7874 6.48924C89.388 6.38004 90.1251 6.32544 90.9987 6.32544H95.3022ZM95.3022 17.047C95.9326 17.047 96.4637 17.0296 96.8956 16.9949C97.3324 16.9551 97.6922 16.8782 97.9752 16.764C98.2581 16.6499 98.4765 16.4861 98.6304 16.2726C98.7843 16.0592 98.8959 15.7763 98.9654 15.4239C99.0349 15.0714 99.0746 14.6396 99.0846 14.1283C99.0994 13.6121 99.1069 12.9966 99.1069 12.2818C99.1069 11.5671 99.0994 10.9541 99.0846 10.4428C99.0746 9.92659 99.0349 9.49226 98.9654 9.13984C98.8959 8.78742 98.7843 8.50449 98.6304 8.29106C98.4765 8.07762 98.2581 7.91382 97.9752 7.79965C97.6972 7.68549 97.3398 7.61103 96.903 7.57629C96.4712 7.53658 95.9376 7.51672 95.3022 7.51672H90.9987C90.3634 7.51672 89.8273 7.53658 89.3905 7.57629C88.9587 7.61103 88.6013 7.68549 88.3183 7.79965C88.0354 7.91382 87.817 8.07762 87.6631 8.29106C87.5093 8.50449 87.3976 8.78742 87.3281 9.13984C87.2586 9.49226 87.2189 9.92659 87.209 10.4428C87.199 10.9541 87.1941 11.5671 87.1941 12.2818C87.1941 12.9966 87.199 13.6121 87.209 14.1283C87.2239 14.6396 87.266 15.0714 87.3355 15.4239C87.405 15.7763 87.5142 16.0592 87.6631 16.2726C87.817 16.4861 88.0354 16.6499 88.3183 16.764C88.6013 16.8782 88.9587 16.9551 89.3905 16.9949C89.8273 17.0296 90.3634 17.047 90.9987 17.047H95.3022ZM112.016 11.9691L118.739 18H116.714L111.018 12.8924L105.516 18H103.491L109.991 11.9691L103.967 6.5637H105.993L110.981 11.0459L115.813 6.5637H117.838L112.016 11.9691ZM138.229 15.3792H129.175L127.745 18H126.078L132.749 6.5637H134.655L141.326 18H139.658L138.229 15.3792ZM137.514 14.1879L133.702 7.51672L129.89 14.1879H137.514ZM157.154 10.1375C157.154 9.5419 157.089 9.07035 156.96 8.7229C156.831 8.37544 156.617 8.11236 156.32 7.93367C156.022 7.75498 155.63 7.64081 155.143 7.59118C154.657 7.54154 154.056 7.51672 153.341 7.51672H149.514C148.879 7.51672 148.343 7.53658 147.906 7.57629C147.474 7.61103 147.117 7.68549 146.834 7.79965C146.551 7.91382 146.333 8.07762 146.179 8.29106C146.025 8.50449 145.913 8.78742 145.844 9.13984C145.774 9.49226 145.735 9.92659 145.725 10.4428C145.715 10.9541 145.71 11.5671 145.71 12.2818C145.71 12.9966 145.715 13.6121 145.725 14.1283C145.74 14.6396 145.782 15.0714 145.851 15.4239C145.921 15.7763 146.03 16.0592 146.179 16.2726C146.333 16.4861 146.551 16.6499 146.834 16.764C147.117 16.8782 147.474 16.9551 147.906 16.9949C148.343 17.0296 148.879 17.047 149.514 17.047H153.349C153.905 17.047 154.384 17.0321 154.786 17.0023C155.188 16.9725 155.53 16.9179 155.813 16.8385C156.096 16.7591 156.325 16.6499 156.498 16.5109C156.672 16.3719 156.806 16.1982 156.9 15.9897C157 15.7763 157.067 15.5231 157.101 15.2303C157.136 14.9325 157.154 14.585 157.154 14.1879V13.4731H151.421V12.2818H158.583V14.1879C158.583 14.6644 158.553 15.0963 158.494 15.4834C158.434 15.8656 158.327 16.2081 158.174 16.5109C158.025 16.8087 157.824 17.0668 157.571 17.2852C157.317 17.5036 156.997 17.6848 156.61 17.8288C156.223 17.9677 155.761 18.0695 155.225 18.134C154.689 18.2035 154.064 18.2383 153.349 18.2383H149.514C148.641 18.2383 147.904 18.1837 147.303 18.0745C146.708 17.9702 146.216 17.8114 145.829 17.5979C145.442 17.3795 145.141 17.1065 144.928 16.7789C144.72 16.4513 144.566 16.0666 144.466 15.6249C144.372 15.1831 144.318 14.6843 144.303 14.1283C144.288 13.5724 144.28 12.9569 144.28 12.2818C144.28 11.6068 144.288 10.9913 144.303 10.4354C144.318 9.87943 144.372 9.38058 144.466 8.93881C144.566 8.49705 144.72 8.11236 144.928 7.78476C145.141 7.45716 145.442 7.18664 145.829 6.9732C146.216 6.7548 146.708 6.59348 147.303 6.48924C147.904 6.38004 148.641 6.32544 149.514 6.32544H153.341C154.056 6.32544 154.682 6.36019 155.218 6.42968C155.754 6.49421 156.215 6.59596 156.603 6.73494C156.99 6.86896 157.31 7.04021 157.563 7.24868C157.821 7.45716 158.025 7.70286 158.174 7.98579C158.327 8.26872 158.434 8.58888 158.494 8.94626C158.553 9.30364 158.583 9.70074 158.583 10.1375H157.154ZM163.451 18H162.021V16.5705H163.451V18Z" fill="white"/>
<path d="M48.601 10.1375H48.1436V10.595H48.601V10.1375ZM46.5907 7.59118L46.5438 8.04622L46.5443 8.04627L46.5907 7.59118ZM39.8451 7.57629L39.8818 8.03229L39.8865 8.03186L39.8451 7.57629ZM37.6636 10.4428L38.1209 10.4517L38.1209 10.4516L37.6636 10.4428ZM37.6636 14.1283L37.2062 14.1371L37.2063 14.1417L37.6636 14.1283ZM38.1177 16.2726L37.7425 16.5344L37.7467 16.5402L38.1177 16.2726ZM39.8451 16.9949L39.8032 17.4504L39.8088 17.4509L39.8451 16.9949ZM48.3479 15.9897L47.9331 15.7968L47.9311 15.8012L48.3479 15.9897ZM48.5489 15.2303L49.0032 15.2842L49.0033 15.2833L48.5489 15.2303ZM48.601 14.1879V13.7304H48.1436V14.1879H48.601ZM50.0306 14.1879H50.488V13.7304H50.0306V14.1879ZM49.9412 15.4834L50.3932 15.5539L50.3933 15.553L49.9412 15.4834ZM49.6211 16.5109L49.2132 16.3036L49.2119 16.3063L49.6211 16.5109ZM48.0575 17.8288L48.2121 18.2593L48.2169 18.2575L48.0575 17.8288ZM46.6726 18.134L46.618 17.6798L46.6138 17.6804L46.6726 18.134ZM39.242 18.0745L39.3238 17.6244L39.3209 17.6239L39.242 18.0745ZM37.7678 17.5979L37.543 17.9964L37.547 17.9986L37.7678 17.5979ZM36.8669 16.7789L36.4809 17.0245L36.4836 17.0287L36.8669 16.7789ZM36.4053 15.6249L35.9579 15.7204L35.959 15.7252L36.4053 15.6249ZM36.4053 8.93882L35.9589 8.83851L35.9579 8.84331L36.4053 8.93882ZM36.8669 7.78476L36.4836 7.53503L36.481 7.53917L36.8669 7.78476ZM37.7678 6.9732L37.9887 7.37383L37.9926 7.37163L37.7678 6.9732ZM39.242 6.48924L39.3209 6.93986L39.3238 6.93932L39.242 6.48924ZM46.6726 6.42968L46.6138 6.88335L46.618 6.88385L46.6726 6.42968ZM48.0575 6.73494L47.9029 7.16552L47.9079 7.16723L48.0575 6.73494ZM49.6211 7.98579L49.2162 8.19887L49.2192 8.20435L49.6211 7.98579ZM50.0306 10.1375V10.595H50.488V10.1375H50.0306ZM49.0585 10.1375C49.0585 9.51645 48.9922 8.9835 48.8363 8.56362L47.9786 8.88217C48.0808 9.1572 48.1436 9.56735 48.1436 10.1375H49.0585ZM48.8363 8.56362C48.6736 8.1258 48.3956 7.77727 48.0025 7.54141L47.5318 8.32593C47.7343 8.44745 47.8831 8.62507 47.9786 8.88217L48.8363 8.56362ZM48.0025 7.54141C47.6286 7.31705 47.165 7.18995 46.6372 7.13609L46.5443 8.04627C46.9894 8.09168 47.3101 8.1929 47.5318 8.32593L48.0025 7.54141ZM46.6376 7.13614C46.1351 7.08433 45.5202 7.05927 44.7964 7.05927V7.97417C45.5021 7.97417 46.0834 7.99875 46.5438 8.04622L46.6376 7.13614ZM44.7964 7.05927H41.4533V7.97417H44.7964V7.05927ZM41.4533 7.05927C40.8097 7.05927 40.2588 7.07933 39.8037 7.12071L39.8865 8.03186C40.305 7.99382 40.8263 7.97417 41.4533 7.97417V7.05927ZM39.8084 7.12031C39.3481 7.15734 38.9415 7.23834 38.6018 7.37543L38.9441 8.22387C39.1702 8.13263 39.4784 8.06472 39.8818 8.03226L39.8084 7.12031ZM38.6018 7.37543C38.2518 7.51666 37.9587 7.72946 37.7467 8.02354L38.4888 8.55857C38.5846 8.42578 38.7283 8.31098 38.9441 8.22387L38.6018 7.37543ZM37.7467 8.02354C37.543 8.30611 37.4117 8.65658 37.3339 9.05135L38.2315 9.22834C38.2926 8.91826 38.3848 8.70288 38.4888 8.55857L37.7467 8.02354ZM37.3339 9.05135C37.2575 9.43866 37.2164 9.90155 37.2062 10.434L38.1209 10.4516C38.1305 9.95162 38.1689 9.54587 38.2315 9.22834L37.3339 9.05135ZM37.2062 10.4339C37.1962 10.949 37.1912 11.5652 37.1912 12.2818H38.1061C38.1061 11.569 38.1111 10.9591 38.1209 10.4517L37.2062 10.4339ZM37.1912 12.2818C37.1912 12.9985 37.1962 13.6171 37.2062 14.1371L38.1209 14.1195C38.1111 13.6071 38.1061 12.9947 38.1061 12.2818H37.1912ZM37.2063 14.1417C37.2217 14.6685 37.2654 15.1272 37.3413 15.5124L38.239 15.3354C38.1759 15.0157 38.1353 14.6107 38.1208 14.115L37.2063 14.1417ZM37.3413 15.5124C37.4187 15.9048 37.5464 16.2531 37.7426 16.5344L38.4929 16.0109C38.3913 15.8653 38.3005 15.6477 38.239 15.3354L37.3413 15.5124ZM37.7467 16.5402C37.9587 16.8342 38.2518 17.047 38.6018 17.1883L38.9441 16.3398C38.7283 16.2527 38.5846 16.1379 38.4888 16.0051L37.7467 16.5402ZM38.6018 17.1883C38.9394 17.3245 39.344 17.4082 39.8032 17.4504L39.887 16.5393C39.4825 16.5021 39.1724 16.4319 38.9441 16.3398L38.6018 17.1883ZM39.8088 17.4509C40.2617 17.4869 40.8107 17.5044 41.4533 17.5044V16.5895C40.8252 16.5895 40.3021 16.5723 39.8814 16.5388L39.8088 17.4509ZM41.4533 17.5044H44.7964V16.5895H41.4533V17.5044ZM44.7964 17.5044C45.3597 17.5044 45.8505 17.4894 46.2671 17.4585L46.1996 16.5461C45.812 16.5748 45.3449 16.5895 44.7964 16.5895V17.5044ZM46.2671 17.4585C46.6892 17.4272 47.0636 17.369 47.3845 17.2789L47.1372 16.3981C46.8922 16.4669 46.5816 16.5178 46.1996 16.5461L46.2671 17.4585ZM47.3845 17.2789C47.7085 17.188 47.9972 17.0556 48.2316 16.8681L47.66 16.1537C47.5469 16.2442 47.379 16.3302 47.1372 16.3981L47.3845 17.2789ZM48.2316 16.8681C48.4633 16.6827 48.6415 16.4506 48.7647 16.1783L47.9311 15.8012C47.8657 15.9458 47.7758 16.0611 47.66 16.1537L48.2316 16.8681ZM48.7627 16.1826C48.8868 15.9157 48.9641 15.6135 49.0032 15.2842L48.0946 15.1764C48.0642 15.4327 48.0075 15.6368 47.9331 15.7968L48.7627 16.1826ZM49.0033 15.2833C49.0406 14.9633 49.0585 14.5974 49.0585 14.1879H48.1436C48.1436 14.5726 48.1267 14.9016 48.0945 15.1773L49.0033 15.2833ZM48.601 14.6454H50.0306V13.7304H48.601V14.6454ZM49.5731 14.1879C49.5731 14.6459 49.5444 15.054 49.4891 15.4139L50.3933 15.553C50.4571 15.1385 50.488 14.6829 50.488 14.1879H49.5731ZM49.4892 15.413C49.4361 15.754 49.3425 16.0494 49.2132 16.3036L50.0289 16.7181C50.2074 16.3669 50.3272 15.9772 50.3932 15.5539L49.4892 15.413ZM49.2119 16.3063C49.0901 16.5498 48.9267 16.7598 48.7191 16.9389L49.3168 17.6316C49.6155 17.3739 49.8541 17.0676 50.0302 16.7155L49.2119 16.3063ZM48.7191 16.9389C48.5156 17.1145 48.2458 17.2707 47.8981 17.4L48.2169 18.2575C48.6435 18.0989 49.014 17.8928 49.3168 17.6316L48.7191 16.9389ZM47.9029 17.3982C47.5563 17.5226 47.1299 17.6182 46.618 17.6798L46.7273 18.5882C47.2875 18.5208 47.7844 18.4128 48.2121 18.2593L47.9029 17.3982ZM46.6138 17.6804C46.1023 17.7467 45.4973 17.7808 44.7964 17.7808V18.6957C45.5249 18.6957 46.1708 18.6603 46.7314 18.5877L46.6138 17.6804ZM44.7964 17.7808H41.4533V18.6957H44.7964V17.7808ZM41.4533 17.7808C40.5965 17.7808 39.8887 17.7271 39.3238 17.6244L39.1602 18.5245C39.7966 18.6402 40.5629 18.6957 41.4533 18.6957V17.7808ZM39.3209 17.6239C38.758 17.5253 38.3186 17.3792 37.9887 17.1973L37.547 17.9986C37.9913 18.2435 38.5348 18.4151 39.1632 18.5251L39.3209 17.6239ZM37.9926 17.1995C37.6606 17.0122 37.4183 16.7873 37.2502 16.5292L36.4836 17.0287C36.7424 17.4258 37.1007 17.7468 37.543 17.9964L37.9926 17.1995ZM37.2528 16.5333C37.077 16.257 36.9412 15.9232 36.8516 15.5246L35.959 15.7252C36.0679 16.2101 36.2398 16.6456 36.481 17.0245L37.2528 16.5333ZM36.8526 15.5294C36.7653 15.1204 36.7131 14.6502 36.6988 14.1161L35.7842 14.1406C35.7997 14.7184 35.8566 15.2458 35.9579 15.7204L36.8526 15.5294ZM36.6988 14.1161C36.684 13.565 36.6766 12.9537 36.6766 12.2818H35.7617C35.7617 12.9602 35.7692 13.5798 35.7842 14.1406L36.6988 14.1161ZM36.6766 12.2818C36.6766 11.61 36.684 10.9987 36.6988 10.4476L35.7842 10.4231C35.7692 10.9839 35.7617 11.6035 35.7617 12.2818H36.6766ZM36.6988 10.4476C36.7131 9.91354 36.7653 9.44328 36.8526 9.03432L35.9579 8.84331C35.8566 9.31788 35.7997 9.84532 35.7842 10.4231L36.6988 10.4476ZM36.8516 9.03911C36.9412 8.64051 37.077 8.30665 37.2528 8.03036L36.481 7.53917C36.2398 7.91807 36.0679 8.35359 35.959 8.83852L36.8516 9.03911ZM37.2502 8.03448C37.4176 7.77755 37.6585 7.55582 37.9887 7.37381L37.547 6.57259C37.1028 6.81745 36.7431 7.13677 36.4836 7.53505L37.2502 8.03448ZM37.9926 7.37163C38.3214 7.18616 38.7593 7.03813 39.3209 6.93985L39.1632 6.03864C38.5335 6.14883 37.9886 6.32344 37.543 6.57477L37.9926 7.37163ZM39.3238 6.93932C39.8887 6.83662 40.5965 6.78289 41.4533 6.78289V5.86799C40.5629 5.86799 39.7966 5.92346 39.1602 6.03917L39.3238 6.93932ZM41.4533 6.78289H44.7964V5.86799H41.4533V6.78289ZM44.7964 6.78289C45.4973 6.78289 46.1023 6.81703 46.6138 6.88333L46.7314 5.97602C46.1708 5.90335 45.5249 5.86799 44.7964 5.86799V6.78289ZM46.618 6.88385C47.1299 6.94547 47.5563 7.04106 47.9029 7.1655L48.2121 6.30439C47.7844 6.15086 47.2875 6.04294 46.7273 5.9755L46.618 6.88385ZM47.9079 7.16723C48.256 7.28772 48.525 7.43531 48.7272 7.60181L49.3088 6.89556C49.0047 6.64511 48.6334 6.4502 48.2071 6.30266L47.9079 7.16723ZM48.7272 7.60181C48.9346 7.77265 49.0964 7.97111 49.2162 8.19885L50.0259 7.77273C49.8479 7.43461 49.6076 7.14167 49.3088 6.89556L48.7272 7.60181ZM49.2192 8.20435C49.3459 8.43736 49.4378 8.70807 49.49 9.02147L50.3924 8.87106C50.3255 8.46968 50.2039 8.10008 50.0229 7.76723L49.2192 8.20435ZM49.49 9.02147C49.5447 9.34956 49.5731 9.72099 49.5731 10.1375H50.488C50.488 9.68048 50.4569 9.25773 50.3924 8.87106L49.49 9.02147ZM50.0306 9.68009H48.601V10.595H50.0306V9.68009ZM53.4689 6.5637V6.10625H52.3923L53.1396 6.88123L53.4689 6.5637ZM55.3749 6.5637L55.7089 6.25106L55.5733 6.10625H55.3749V6.5637ZM60.6166 12.1627L60.2826 12.4754L60.6166 12.8321L60.9505 12.4754L60.6166 12.1627ZM65.8582 6.5637V6.10625H65.6598L65.5243 6.25106L65.8582 6.5637ZM67.7643 6.5637L68.0936 6.88123L68.8409 6.10625H67.7643V6.5637ZM61.3314 13.2349L61.0021 12.9173L60.8739 13.0502V13.2349H61.3314ZM61.3314 18V18.4575H61.7888V18H61.3314ZM59.9018 18H59.4444V18.4575H59.9018V18ZM59.9018 13.2349H60.3593V13.0502L60.2311 12.9173L59.9018 13.2349ZM53.4689 7.02115H55.3749V6.10625H53.4689V7.02115ZM55.041 6.87633L60.2826 12.4754L60.9505 11.8501L55.7089 6.25106L55.041 6.87633ZM60.9505 12.4754L66.1922 6.87633L65.5243 6.25106L60.2826 11.8501L60.9505 12.4754ZM65.8582 7.02115H67.7643V6.10625H65.8582V7.02115ZM67.435 6.24616L61.0021 12.9173L61.6606 13.5524L68.0936 6.88123L67.435 6.24616ZM60.8739 13.2349V18H61.7888V13.2349H60.8739ZM61.3314 17.5425H59.9018V18.4575H61.3314V17.5425ZM60.3593 18V13.2349H59.4444V18H60.3593ZM60.2311 12.9173L53.7982 6.24616L53.1396 6.88123L59.5725 13.5524L60.2311 12.9173ZM71.8504 18H71.3929V18.4575H71.8504V18ZM71.8504 6.5637V6.10625H71.3929V6.5637H71.8504ZM82.8102 6.5637H83.2676V6.10625H82.8102V6.5637ZM82.8102 7.75498V8.21243H83.2676V7.75498H82.8102ZM73.2799 7.75498V7.29753H72.8225V7.75498H73.2799ZM73.2799 11.5671H72.8225V12.0245H73.2799V11.5671ZM82.3336 11.5671H82.7911V11.1096H82.3336V11.5671ZM82.3336 12.7584V13.2158H82.7911V12.7584H82.3336ZM73.2799 12.7584V12.3009H72.8225V12.7584H73.2799ZM73.2799 18V18.4575H73.7374V18H73.2799ZM72.3078 18V6.5637H71.3929V18H72.3078ZM71.8504 7.02115H82.8102V6.10625H71.8504V7.02115ZM82.3527 6.5637V7.75498H83.2676V6.5637H82.3527ZM82.8102 7.29753H73.2799V8.21243H82.8102V7.29753ZM72.8225 7.75498V11.5671H73.7374V7.75498H72.8225ZM73.2799 12.0245H82.3336V11.1096H73.2799V12.0245ZM81.8762 11.5671V12.7584H82.7911V11.5671H81.8762ZM82.3336 12.3009H73.2799V13.2158H82.3336V12.3009ZM72.8225 12.7584V18H73.7374V12.7584H72.8225ZM73.2799 17.5425H71.8504V18.4575H73.2799V17.5425ZM97.5061 6.48924L97.4236 6.93922L97.4279 6.93996L97.5061 6.48924ZM98.9878 6.9732L98.763 7.37165L98.7669 7.37381L98.9878 6.9732ZM100.335 8.93882L99.888 9.03433L99.8891 9.03911L100.335 8.93882ZM100.507 10.4354L100.049 10.4476L100.049 10.4517L100.507 10.4354ZM100.507 14.1283L100.049 14.112L100.049 14.1161L100.507 14.1283ZM100.335 15.6249L99.8891 15.5246L99.888 15.5294L100.335 15.6249ZM98.9878 17.5979L99.2086 17.9986L99.2125 17.9964L98.9878 17.5979ZM97.5061 18.0745L97.4279 17.6237L97.4236 17.6245L97.5061 18.0745ZM88.7874 18.0745L88.8692 17.6244L88.8663 17.6239L88.7874 18.0745ZM87.3132 17.5979L87.0884 17.9964L87.0924 17.9986L87.3132 17.5979ZM86.4123 16.7789L86.0263 17.0245L86.029 17.0287L86.4123 16.7789ZM85.9507 15.6249L85.5033 15.7204L85.5044 15.7252L85.9507 15.6249ZM85.9507 8.93882L85.5043 8.83851L85.5033 8.84331L85.9507 8.93882ZM86.4123 7.78476L86.029 7.53503L86.0264 7.53917L86.4123 7.78476ZM87.3132 6.9732L87.5341 7.37383L87.538 7.37163L87.3132 6.9732ZM88.7874 6.48924L88.8663 6.93986L88.8692 6.93932L88.7874 6.48924ZM96.8956 16.9949L96.9323 17.4509L96.937 17.4504L96.8956 16.9949ZM99.0846 14.1283L98.6273 14.1151L98.6272 14.1195L99.0846 14.1283ZM99.0846 10.4428L98.6272 10.4516L98.6273 10.4561L99.0846 10.4428ZM97.9752 7.79965L97.8014 8.22281L97.804 8.22387L97.9752 7.79965ZM96.903 7.57629L96.8611 8.03185L96.8667 8.0323L96.903 7.57629ZM89.3905 7.57629L89.4272 8.03229L89.4319 8.03186L89.3905 7.57629ZM87.209 10.4428L87.6663 10.4517V10.4516L87.209 10.4428ZM87.209 14.1283L86.7516 14.1371L86.7517 14.1417L87.209 14.1283ZM87.6631 16.2726L87.2879 16.5344L87.2921 16.5402L87.6631 16.2726ZM89.3905 16.9949L89.3486 17.4504L89.3542 17.4509L89.3905 16.9949ZM95.3022 6.78289C96.1592 6.78289 96.8642 6.83664 97.4236 6.9392L97.5886 6.03929C96.9567 5.92345 96.1925 5.86799 95.3022 5.86799V6.78289ZM97.4279 6.93996C97.9948 7.03834 98.4348 7.18647 98.763 7.37163L99.2125 6.57477C98.7664 6.32313 98.2186 6.14862 97.5843 6.03853L97.4279 6.93996ZM98.7669 7.37381C99.0963 7.55542 99.3334 7.77595 99.4953 8.03036L100.267 7.53917C100.012 7.13837 99.6535 6.81786 99.2086 6.57259L98.7669 7.37381ZM99.4953 8.03036C99.6702 8.30515 99.8033 8.63729 99.888 9.03432L100.783 8.84331C100.679 8.3568 100.509 7.91958 100.267 7.53917L99.4953 8.03036ZM99.8891 9.03911C99.9806 9.44629 100.035 9.91489 100.049 10.4476L100.964 10.4231C100.948 9.84397 100.889 9.31487 100.782 8.83852L99.8891 9.03911ZM100.049 10.4517C100.069 11.0012 100.079 11.6111 100.079 12.2818H100.994C100.994 11.6024 100.984 10.9814 100.964 10.419L100.049 10.4517ZM100.079 12.2818C100.079 12.9526 100.069 13.5625 100.049 14.112L100.964 14.1447C100.984 13.5823 100.994 12.9613 100.994 12.2818H100.079ZM100.049 14.1161C100.035 14.6488 99.9806 15.1174 99.8891 15.5246L100.782 15.7252C100.889 15.2488 100.948 14.7197 100.964 14.1406L100.049 14.1161ZM99.888 15.5294C99.8033 15.9264 99.6702 16.2586 99.4953 16.5333L100.267 17.0245C100.509 16.6441 100.679 16.2069 100.783 15.7204L99.888 15.5294ZM99.4953 16.5333C99.3327 16.7889 99.0943 17.0126 98.763 17.1995L99.2125 17.9964C99.6556 17.7464 100.013 17.4242 100.267 17.0245L99.4953 16.5333ZM98.7669 17.1973C98.4375 17.3789 97.996 17.5251 97.4279 17.6237L97.5843 18.5252C98.2174 18.4153 98.7637 18.2438 99.2086 17.9986L98.7669 17.1973ZM97.4236 17.6245C96.8642 17.7271 96.1592 17.7808 95.3022 17.7808V18.6957C96.1925 18.6957 96.9567 18.6403 97.5886 18.5244L97.4236 17.6245ZM95.3022 17.7808H90.9987V18.6957H95.3022V17.7808ZM90.9987 17.7808C90.1419 17.7808 89.4341 17.7271 88.8692 17.6244L88.7056 18.5245C89.342 18.6402 90.1083 18.6957 90.9987 18.6957V17.7808ZM88.8663 17.6239C88.3034 17.5253 87.864 17.3792 87.5341 17.1973L87.0924 17.9986C87.5367 18.2435 88.0802 18.4151 88.7086 18.5251L88.8663 17.6239ZM87.538 17.1995C87.206 17.0122 86.9637 16.7873 86.7956 16.5292L86.029 17.0287C86.2878 17.4258 86.6461 17.7468 87.0884 17.9964L87.538 17.1995ZM86.7982 16.5333C86.6224 16.257 86.4866 15.9232 86.397 15.5246L85.5044 15.7252C85.6133 16.2101 85.7852 16.6456 86.0264 17.0245L86.7982 16.5333ZM86.398 15.5294C86.3107 15.1204 86.2585 14.6502 86.2442 14.1161L85.3296 14.1406C85.3451 14.7184 85.402 15.2458 85.5033 15.7204L86.398 15.5294ZM86.2442 14.1161C86.2294 13.565 86.222 12.9537 86.222 12.2818H85.3071C85.3071 12.9602 85.3146 13.5798 85.3296 14.1406L86.2442 14.1161ZM86.222 12.2818C86.222 11.61 86.2294 10.9987 86.2442 10.4476L85.3296 10.4231C85.3146 10.9839 85.3071 11.6035 85.3071 12.2818H86.222ZM86.2442 10.4476C86.2585 9.91354 86.3107 9.44328 86.398 9.03432L85.5033 8.84331C85.402 9.31788 85.3451 9.84532 85.3296 10.4231L86.2442 10.4476ZM86.397 9.03911C86.4866 8.64051 86.6224 8.30665 86.7982 8.03036L86.0264 7.53917C85.7852 7.91807 85.6133 8.35359 85.5044 8.83852L86.397 9.03911ZM86.7956 8.03448C86.963 7.77755 87.2039 7.55582 87.5341 7.37381L87.0924 6.57259C86.6482 6.81745 86.2885 7.13677 86.029 7.53505L86.7956 8.03448ZM87.538 7.37163C87.8668 7.18616 88.3047 7.03813 88.8663 6.93985L88.7086 6.03864C88.0789 6.14883 87.534 6.32344 87.0884 6.57477L87.538 7.37163ZM88.8692 6.93932C89.4341 6.83662 90.1419 6.78289 90.9987 6.78289V5.86799C90.1083 5.86799 89.342 5.92346 88.7056 6.03917L88.8692 6.93932ZM90.9987 6.78289H95.3022V5.86799H90.9987V6.78289ZM95.3022 17.5044C95.9399 17.5044 96.4841 17.4869 96.9323 17.4508L96.8589 16.5389C96.4434 16.5723 95.9253 16.5895 95.3022 16.5895V17.5044ZM96.937 17.4504C97.4006 17.4083 97.8082 17.3247 98.1463 17.1883L97.804 16.3398C97.5763 16.4317 97.2641 16.502 96.8542 16.5393L96.937 17.4504ZM98.1463 17.1883C98.4963 17.047 98.7894 16.8342 99.0015 16.5402L98.2593 16.0051C98.1636 16.1379 98.0199 16.2527 97.804 16.3398L98.1463 17.1883ZM99.0015 16.5402C99.2052 16.2576 99.3364 15.9071 99.4142 15.5124L98.5166 15.3354C98.4555 15.6454 98.3633 15.8608 98.2593 16.0051L99.0015 16.5402ZM99.4142 15.5124C99.4906 15.1253 99.5317 14.665 99.5419 14.1372L98.6272 14.1195C98.6176 14.6142 98.5793 15.0176 98.5166 15.3354L99.4142 15.5124ZM99.5418 14.1415C99.5569 13.6196 99.5643 12.9995 99.5643 12.2818H98.6494C98.6494 12.9938 98.642 13.6046 98.6273 14.1151L99.5418 14.1415ZM99.5643 12.2818C99.5643 11.5642 99.5569 10.9465 99.5418 10.4295L98.6273 10.4561C98.642 10.9616 98.6494 11.5699 98.6494 12.2818H99.5643ZM99.5419 10.434C99.5317 9.90155 99.4906 9.43866 99.4142 9.05135L98.5166 9.22834C98.5792 9.54587 98.6176 9.95162 98.6272 10.4516L99.5419 10.434ZM99.4142 9.05135C99.3364 8.65658 99.2052 8.30611 99.0015 8.02354L98.2593 8.55857C98.3633 8.70288 98.4555 8.91826 98.5166 9.22834L99.4142 9.05135ZM99.0015 8.02354C98.7894 7.72946 98.4963 7.51666 98.1463 7.37543L97.804 8.22387C98.0199 8.31098 98.1636 8.42578 98.2593 8.55857L99.0015 8.02354ZM98.149 7.3765C97.812 7.23812 97.4038 7.15722 96.9393 7.12028L96.8667 8.0323C97.2759 8.06484 97.5824 8.13285 97.8014 8.2228L98.149 7.3765ZM96.9449 7.12076C96.4944 7.07933 95.9458 7.05927 95.3022 7.05927V7.97417C95.9294 7.97417 96.448 7.99383 96.8611 8.03182L96.9449 7.12076ZM95.3022 7.05927H90.9987V7.97417H95.3022V7.05927ZM90.9987 7.05927C90.3551 7.05927 89.8042 7.07933 89.3491 7.12071L89.4319 8.03186C89.8504 7.99382 90.3717 7.97417 90.9987 7.97417V7.05927ZM89.3538 7.12031C88.8935 7.15734 88.4869 7.23834 88.1472 7.37543L88.4895 8.22387C88.7156 8.13263 89.0238 8.06472 89.4272 8.03226L89.3538 7.12031ZM88.1472 7.37543C87.7972 7.51666 87.5041 7.72946 87.2921 8.02354L88.0342 8.55857C88.13 8.42578 88.2737 8.31098 88.4895 8.22387L88.1472 7.37543ZM87.2921 8.02354C87.0884 8.30611 86.9571 8.65658 86.8793 9.05135L87.7769 9.22834C87.838 8.91826 87.9302 8.70288 88.0342 8.55857L87.2921 8.02354ZM86.8793 9.05135C86.8029 9.43866 86.7618 9.90155 86.7516 10.434L87.6663 10.4516C87.6759 9.95162 87.7143 9.54587 87.7769 9.22834L86.8793 9.05135ZM86.7516 10.4339C86.7416 10.949 86.7366 11.5652 86.7366 12.2818H87.6515C87.6515 11.569 87.6565 10.9591 87.6663 10.4517L86.7516 10.4339ZM86.7366 12.2818C86.7366 12.9985 86.7416 13.6171 86.7516 14.1371L87.6663 14.1195C87.6565 13.6071 87.6515 12.9947 87.6515 12.2818H86.7366ZM86.7517 14.1417C86.7671 14.6685 86.8108 15.1272 86.8867 15.5124L87.7844 15.3354C87.7213 15.0157 87.6807 14.6107 87.6662 14.115L86.7517 14.1417ZM86.8867 15.5124C86.9641 15.9048 87.0918 16.2531 87.288 16.5344L88.0383 16.0109C87.9367 15.8653 87.8459 15.6477 87.7844 15.3354L86.8867 15.5124ZM87.2921 16.5402C87.5041 16.8342 87.7972 17.047 88.1472 17.1883L88.4895 16.3398C88.2737 16.2527 88.13 16.1379 88.0342 16.0051L87.2921 16.5402ZM88.1472 17.1883C88.4848 17.3245 88.8894 17.4082 89.3486 17.4504L89.4324 16.5393C89.0279 16.5021 88.7178 16.4319 88.4895 16.3398L88.1472 17.1883ZM89.3542 17.4509C89.8071 17.4869 90.3561 17.5044 90.9987 17.5044V16.5895C90.3706 16.5895 89.8475 16.5723 89.4268 16.5388L89.3542 17.4509ZM90.9987 17.5044H95.3022V16.5895H90.9987V17.5044ZM112.016 11.9691L111.705 11.6339L111.337 11.9749L111.71 12.3097L112.016 11.9691ZM118.739 18V18.4575H119.934L119.045 17.6595L118.739 18ZM116.714 18L116.409 18.3406L116.539 18.4575H116.714V18ZM111.018 12.8924L111.324 12.5518L111.013 12.2732L110.707 12.5571L111.018 12.8924ZM105.516 18V18.4575H105.696L105.827 18.3353L105.516 18ZM103.491 18L103.18 17.6647L102.325 18.4575H103.491V18ZM109.991 11.9691L110.302 12.3045L110.669 11.9635L110.296 11.6287L109.991 11.9691ZM103.967 6.5637V6.10625H102.773L103.662 6.90416L103.967 6.5637ZM105.993 6.5637L106.298 6.22342L106.168 6.10625H105.993V6.5637ZM110.981 11.0459L110.675 11.3862L110.986 11.6653L111.292 11.3813L110.981 11.0459ZM115.813 6.5637V6.10625H115.634L115.502 6.22831L115.813 6.5637ZM117.838 6.5637L118.15 6.89895L119.003 6.10625H117.838V6.5637ZM111.71 12.3097L118.434 18.3405L119.045 17.6595L112.321 11.6286L111.71 12.3097ZM118.739 17.5425H116.714V18.4575H118.739V17.5425ZM117.019 17.6594L111.324 12.5518L110.713 13.233L116.409 18.3406L117.019 17.6594ZM110.707 12.5571L105.205 17.6647L105.827 18.3353L111.329 13.2276L110.707 12.5571ZM105.516 17.5425H103.491V18.4575H105.516V17.5425ZM103.802 18.3353L110.302 12.3045L109.68 11.6338L103.18 17.6647L103.802 18.3353ZM110.296 11.6287L104.273 6.22324L103.662 6.90416L109.685 12.3096L110.296 11.6287ZM103.967 7.02115H105.993V6.10625H103.967V7.02115ZM105.687 6.90397L110.675 11.3862L111.287 10.7056L106.298 6.22342L105.687 6.90397ZM111.292 11.3813L116.124 6.89908L115.502 6.22831L110.67 10.7105L111.292 11.3813ZM115.813 7.02115H117.838V6.10625H115.813V7.02115ZM117.527 6.22845L111.705 11.6339L112.327 12.3044L118.15 6.89895L117.527 6.22845ZM138.229 15.3792L138.63 15.1601L138.5 14.9217H138.229V15.3792ZM129.175 15.3792V14.9217H128.903L128.773 15.1601L129.175 15.3792ZM127.745 18V18.4575H128.017L128.147 18.2191L127.745 18ZM126.077 18L125.682 17.7695L125.281 18.4575H126.077V18ZM132.749 6.5637V6.10625H132.486L132.354 6.3332L132.749 6.5637ZM134.655 6.5637L135.05 6.3332L134.917 6.10625H134.655V6.5637ZM141.326 18V18.4575H142.122L141.721 17.7695L141.326 18ZM139.658 18L139.257 18.2191L139.387 18.4575H139.658V18ZM137.514 14.1879V14.6454H138.302L137.911 13.9609L137.514 14.1879ZM133.702 7.51672L134.099 7.28976L133.702 6.5947L133.305 7.28976L133.702 7.51672ZM129.89 14.1879L129.492 13.9609L129.101 14.6454H129.89V14.1879ZM138.229 14.9217H129.175V15.8366H138.229V14.9217ZM128.773 15.1601L127.344 17.7809L128.147 18.2191L129.576 15.5982L128.773 15.1601ZM127.745 17.5425H126.077V18.4575H127.745V17.5425ZM126.473 18.2305L133.144 6.79419L132.354 6.3332L125.682 17.7695L126.473 18.2305ZM132.749 7.02115H134.655V6.10625H132.749V7.02115ZM134.26 6.79419L140.931 18.2305L141.721 17.7695L135.05 6.3332L134.26 6.79419ZM141.326 17.5425H139.658V18.4575H141.326V17.5425ZM140.06 17.7809L138.63 15.1601L137.827 15.5982L139.257 18.2191L140.06 17.7809ZM137.911 13.9609L134.099 7.28976L133.305 7.74368L137.117 14.4149L137.911 13.9609ZM133.305 7.28976L129.492 13.9609L130.287 14.4149L134.099 7.74368L133.305 7.28976ZM129.89 14.6454H137.514V13.7304H129.89V14.6454ZM157.154 10.1375H156.696V10.595H157.154V10.1375ZM147.906 7.57629L147.943 8.03229L147.948 8.03186L147.906 7.57629ZM145.725 10.4428L146.182 10.4517V10.4516L145.725 10.4428ZM145.725 14.1283L145.267 14.1371L145.267 14.1417L145.725 14.1283ZM146.179 16.2726L145.804 16.5344L145.808 16.5402L146.179 16.2726ZM147.906 16.9949L147.864 17.4504L147.87 17.4509L147.906 16.9949ZM156.9 15.9897L156.486 15.7968L156.484 15.8012L156.9 15.9897ZM157.101 15.2303L157.556 15.2842L157.556 15.2833L157.101 15.2303ZM157.154 13.4731H157.611V13.0157H157.154V13.4731ZM151.421 13.4731H150.963V13.9306H151.421V13.4731ZM151.421 12.2818V11.8244H150.963V12.2818H151.421ZM158.583 12.2818H159.041V11.8244H158.583V12.2818ZM158.494 15.4834L158.946 15.5539L158.946 15.553L158.494 15.4834ZM158.174 16.5109L157.766 16.3036L157.764 16.3063L158.174 16.5109ZM156.61 17.8288L156.765 18.2593L156.769 18.2575L156.61 17.8288ZM155.225 18.134L155.171 17.6798L155.166 17.6804L155.225 18.134ZM147.303 18.0745L147.385 17.6244L147.382 17.6239L147.303 18.0745ZM145.829 17.5979L145.604 17.9964L145.608 17.9986L145.829 17.5979ZM144.928 16.7789L144.542 17.0245L144.545 17.0287L144.928 16.7789ZM144.466 15.6249L144.019 15.7204L144.02 15.7252L144.466 15.6249ZM144.466 8.93882L144.02 8.83851L144.019 8.84331L144.466 8.93882ZM144.928 7.78476L144.545 7.53503L144.542 7.53917L144.928 7.78476ZM145.829 6.9732L146.05 7.37383L146.054 7.37163L145.829 6.9732ZM147.303 6.48924L147.382 6.93986L147.385 6.93932L147.303 6.48924ZM155.218 6.42968L155.159 6.88335L155.163 6.88385L155.218 6.42968ZM156.603 6.73494L156.448 7.16552L156.453 7.16723L156.603 6.73494ZM157.563 7.24868L157.272 7.60182L157.276 7.60456L157.563 7.24868ZM158.174 7.98579L157.769 8.19887L157.772 8.20435L158.174 7.98579ZM158.583 10.1375V10.595H159.041V10.1375H158.583ZM157.611 10.1375C157.611 9.51645 157.545 8.9835 157.389 8.56362L156.531 8.88217C156.633 9.1572 156.696 9.56735 156.696 10.1375H157.611ZM157.389 8.56362C157.226 8.1258 156.948 7.77727 156.555 7.54141L156.084 8.32593C156.287 8.44745 156.436 8.62507 156.531 8.88217L157.389 8.56362ZM156.555 7.54141C156.181 7.31705 155.718 7.18995 155.19 7.13609L155.097 8.04627C155.542 8.09168 155.863 8.1929 156.084 8.32593L156.555 7.54141ZM155.19 7.13609C154.683 7.08434 154.065 7.05927 153.341 7.05927V7.97417C154.047 7.97417 154.631 7.99874 155.097 8.04627L155.19 7.13609ZM153.341 7.05927H149.514V7.97417H153.341V7.05927ZM149.514 7.05927C148.871 7.05927 148.32 7.07933 147.865 7.12071L147.948 8.03186C148.366 7.99382 148.887 7.97417 149.514 7.97417V7.05927ZM147.87 7.12031C147.409 7.15734 147.003 7.23834 146.663 7.37543L147.005 8.22387C147.231 8.13263 147.54 8.06472 147.943 8.03226L147.87 7.12031ZM146.663 7.37543C146.313 7.51666 146.02 7.72946 145.808 8.02354L146.55 8.55857C146.646 8.42578 146.789 8.31098 147.005 8.22387L146.663 7.37543ZM145.808 8.02354C145.604 8.30611 145.473 8.65658 145.395 9.05135L146.293 9.22834C146.354 8.91826 146.446 8.70288 146.55 8.55857L145.808 8.02354ZM145.395 9.05135C145.319 9.43866 145.278 9.90155 145.267 10.434L146.182 10.4516C146.192 9.95162 146.23 9.54587 146.293 9.22834L145.395 9.05135ZM145.267 10.4339C145.257 10.949 145.252 11.5652 145.252 12.2818H146.167C146.167 11.569 146.172 10.9591 146.182 10.4517L145.267 10.4339ZM145.252 12.2818C145.252 12.9985 145.257 13.6171 145.267 14.1371L146.182 14.1195C146.172 13.6071 146.167 12.9947 146.167 12.2818H145.252ZM145.267 14.1417C145.283 14.6685 145.327 15.1272 145.402 15.5124L146.3 15.3354C146.237 15.0157 146.196 14.6107 146.182 14.115L145.267 14.1417ZM145.402 15.5124C145.48 15.9048 145.608 16.2531 145.804 16.5344L146.554 16.0109C146.452 15.8653 146.362 15.6477 146.3 15.3354L145.402 15.5124ZM145.808 16.5402C146.02 16.8342 146.313 17.047 146.663 17.1883L147.005 16.3398C146.789 16.2527 146.646 16.1379 146.55 16.0051L145.808 16.5402ZM146.663 17.1883C147.001 17.3245 147.405 17.4082 147.864 17.4504L147.948 16.5393C147.544 16.5021 147.234 16.4319 147.005 16.3398L146.663 17.1883ZM147.87 17.4509C148.323 17.4869 148.872 17.5044 149.514 17.5044V16.5895C148.886 16.5895 148.363 16.5723 147.943 16.5388L147.87 17.4509ZM149.514 17.5044H153.349V16.5895H149.514V17.5044ZM153.349 17.5044C153.912 17.5044 154.403 17.4894 154.82 17.4585L154.752 16.5461C154.365 16.5748 153.897 16.5895 153.349 16.5895V17.5044ZM154.82 17.4585C155.242 17.4272 155.616 17.369 155.937 17.2789L155.69 16.3981C155.445 16.4669 155.134 16.5178 154.752 16.5461L154.82 17.4585ZM155.937 17.2789C156.261 17.188 156.55 17.0556 156.784 16.8681L156.213 16.1537C156.1 16.2442 155.932 16.3302 155.69 16.3981L155.937 17.2789ZM156.784 16.8681C157.016 16.6827 157.194 16.4506 157.317 16.1783L156.484 15.8012C156.418 15.9458 156.328 16.0611 156.213 16.1537L156.784 16.8681ZM157.315 16.1826C157.439 15.9157 157.517 15.6135 157.556 15.2842L156.647 15.1764C156.617 15.4327 156.56 15.6368 156.486 15.7968L157.315 16.1826ZM157.556 15.2833C157.593 14.9633 157.611 14.5974 157.611 14.1879H156.696C156.696 14.5726 156.679 14.9016 156.647 15.1773L157.556 15.2833ZM157.611 14.1879V13.4731H156.696V14.1879H157.611ZM157.154 13.0157H151.421V13.9306H157.154V13.0157ZM151.878 13.4731V12.2818H150.963V13.4731H151.878ZM151.421 12.7393H158.583V11.8244H151.421V12.7393ZM158.126 12.2818V14.1879H159.041V12.2818H158.126ZM158.126 14.1879C158.126 14.6459 158.097 15.054 158.042 15.4139L158.946 15.553C159.01 15.1385 159.041 14.6829 159.041 14.1879H158.126ZM158.042 15.413C157.989 15.754 157.895 16.0494 157.766 16.3036L158.581 16.7181C158.76 16.3669 158.88 15.9772 158.946 15.5539L158.042 15.413ZM157.764 16.3063C157.643 16.5498 157.479 16.7598 157.272 16.9389L157.869 17.6316C158.168 17.3739 158.407 17.0676 158.583 16.7155L157.764 16.3063ZM157.272 16.9389C157.068 17.1145 156.798 17.2707 156.451 17.4L156.769 18.2575C157.196 18.0989 157.567 17.8928 157.869 17.6316L157.272 16.9389ZM156.455 17.3982C156.109 17.5226 155.682 17.6182 155.171 17.6798L155.28 18.5882C155.84 18.5208 156.337 18.4128 156.765 18.2593L156.455 17.3982ZM155.166 17.6804C154.655 17.7467 154.05 17.7808 153.349 17.7808V18.6957C154.077 18.6957 154.723 18.6603 155.284 18.5877L155.166 17.6804ZM153.349 17.7808H149.514V18.6957H153.349V17.7808ZM149.514 17.7808C148.658 17.7808 147.95 17.7271 147.385 17.6244L147.221 18.5245C147.858 18.6402 148.624 18.6957 149.514 18.6957V17.7808ZM147.382 17.6239C146.819 17.5253 146.38 17.3792 146.05 17.1973L145.608 17.9986C146.052 18.2435 146.596 18.4151 147.224 18.5251L147.382 17.6239ZM146.054 17.1995C145.722 17.0122 145.479 16.7873 145.311 16.5292L144.545 17.0287C144.804 17.4258 145.162 17.7468 145.604 17.9964L146.054 17.1995ZM145.314 16.5333C145.138 16.257 145.002 15.9232 144.913 15.5246L144.02 15.7252C144.129 16.2101 144.301 16.6456 144.542 17.0245L145.314 16.5333ZM144.914 15.5294C144.826 15.1204 144.774 14.6502 144.76 14.1161L143.845 14.1406C143.861 14.7184 143.918 15.2458 144.019 15.7204L144.914 15.5294ZM144.76 14.1161C144.745 13.565 144.738 12.9537 144.738 12.2818H143.823C143.823 12.9602 143.83 13.5798 143.845 14.1406L144.76 14.1161ZM144.738 12.2818C144.738 11.61 144.745 10.9987 144.76 10.4476L143.845 10.4231C143.83 10.9839 143.823 11.6035 143.823 12.2818H144.738ZM144.76 10.4476C144.774 9.91354 144.826 9.44328 144.914 9.03432L144.019 8.84331C143.918 9.31788 143.861 9.84532 143.845 10.4231L144.76 10.4476ZM144.913 9.03911C145.002 8.64051 145.138 8.30665 145.314 8.03036L144.542 7.53917C144.301 7.91807 144.129 8.35359 144.02 8.83852L144.913 9.03911ZM145.311 8.03448C145.479 7.77755 145.72 7.55582 146.05 7.37381L145.608 6.57259C145.164 6.81745 144.804 7.13677 144.545 7.53505L145.311 8.03448ZM146.054 7.37163C146.383 7.18616 146.82 7.03813 147.382 6.93985L147.224 6.03864C146.595 6.14883 146.05 6.32344 145.604 6.57477L146.054 7.37163ZM147.385 6.93932C147.95 6.83662 148.658 6.78289 149.514 6.78289V5.86799C148.624 5.86799 147.858 5.92346 147.221 6.03917L147.385 6.93932ZM149.514 6.78289H153.341V5.86799H149.514V6.78289ZM153.341 6.78289C154.042 6.78289 154.647 6.81703 155.159 6.88333L155.277 5.97602C154.716 5.90335 154.07 5.86799 153.341 5.86799V6.78289ZM155.163 6.88385C155.675 6.94547 156.101 7.04106 156.448 7.1655L156.757 6.30439C156.329 6.15086 155.833 6.04294 155.272 5.9755L155.163 6.88385ZM156.453 7.16723C156.801 7.28772 157.07 7.43531 157.272 7.60181L157.854 6.89556C157.55 6.64511 157.178 6.4502 156.752 6.30266L156.453 7.16723ZM157.276 7.60456C157.487 7.77542 157.65 7.9731 157.769 8.19885L158.578 7.77273C158.399 7.43262 158.155 7.1389 157.851 6.89281L157.276 7.60456ZM157.772 8.20435C157.898 8.43736 157.99 8.70807 158.043 9.02147L158.945 8.87106C158.878 8.46968 158.756 8.10008 158.575 7.76723L157.772 8.20435ZM158.043 9.02147C158.097 9.34956 158.126 9.72099 158.126 10.1375H159.041C159.041 9.68048 159.009 9.25773 158.945 8.87106L158.043 9.02147ZM158.583 9.68009H157.154V10.595H158.583V9.68009ZM163.451 18V18.4575H163.908V18H163.451ZM162.021 18H161.564V18.4575H162.021V18ZM162.021 16.5705V16.113H161.564V16.5705H162.021ZM163.451 16.5705H163.908V16.113H163.451V16.5705ZM163.451 17.5425H162.021V18.4575H163.451V17.5425ZM162.479 18V16.5705H161.564V18H162.479ZM162.021 17.0279H163.451V16.113H162.021V17.0279ZM162.994 16.5705V18H163.908V16.5705H162.994Z" fill="white"/>
<path d="M180.388 15.3792H171.334L169.905 18H168.237L174.908 6.5637H176.814L183.485 18H181.817L180.388 15.3792ZM179.673 14.1879L175.861 7.51672L172.049 14.1879H179.673ZM186.916 6.5637H188.346V18H186.916V6.5637Z" fill="#FF0000"/>
<path d="M180.388 15.3792L180.789 15.1601L180.659 14.9217H180.388V15.3792ZM171.334 15.3792V14.9217H171.063L170.933 15.1601L171.334 15.3792ZM169.905 18V18.4575H170.176L170.306 18.2191L169.905 18ZM168.237 18L167.842 17.7695L167.44 18.4575H168.237V18ZM174.908 6.5637V6.10625H174.645L174.513 6.3332L174.908 6.5637ZM176.814 6.5637L177.209 6.3332L177.077 6.10625H176.814V6.5637ZM183.485 18V18.4575H184.282L183.88 17.7695L183.485 18ZM181.817 18L181.416 18.2191L181.546 18.4575H181.817V18ZM179.673 14.1879V14.6454H180.461L180.07 13.9609L179.673 14.1879ZM175.861 7.51672L176.258 7.28976L175.861 6.5947L175.464 7.28976L175.861 7.51672ZM172.049 14.1879L171.652 13.9609L171.261 14.6454H172.049V14.1879ZM180.388 14.9217H171.334V15.8366H180.388V14.9217ZM170.933 15.1601L169.503 17.7809L170.306 18.2191L171.736 15.5982L170.933 15.1601ZM169.905 17.5425H168.237V18.4575H169.905V17.5425ZM168.632 18.2305L175.303 6.79419L174.513 6.3332L167.842 17.7695L168.632 18.2305ZM174.908 7.02115H176.814V6.10625H174.908V7.02115ZM176.419 6.79419L183.09 18.2305L183.88 17.7695L177.209 6.3332L176.419 6.79419ZM183.485 17.5425H181.817V18.4575H183.485V17.5425ZM182.219 17.7809L180.789 15.1601L179.986 15.5982L181.416 18.2191L182.219 17.7809ZM180.07 13.9609L176.258 7.28976L175.464 7.74368L179.276 14.4149L180.07 13.9609ZM175.464 7.28976L171.652 13.9609L172.446 14.4149L176.258 7.74368L175.464 7.28976ZM172.049 14.6454H179.673V13.7304H172.049V14.6454ZM186.916 6.5637V6.10625H186.459V6.5637H186.916ZM188.346 6.5637H188.803V6.10625H188.346V6.5637ZM188.346 18V18.4575H188.803V18H188.346ZM186.916 18H186.459V18.4575H186.916V18ZM186.916 7.02115H188.346V6.10625H186.916V7.02115ZM187.888 6.5637V18H188.803V6.5637H187.888ZM188.346 17.5425H186.916V18.4575H188.346V17.5425ZM187.374 18V6.5637H186.459V18H187.374Z" fill="#FF0000"/>
<defs>
<linearGradient id="paint0_linear_327_22" x1="12.0165" y1="20.5677" x2="-0.703043" y2="8.19656" gradientUnits="userSpaceOnUse">
<stop stop-color="#FF0000"/>
<stop offset="1" stop-color="#FF450D"/>
</linearGradient>
<linearGradient id="paint1_linear_327_22" x1="5.9784" y1="24.0597" x2="1.96626" y2="18.3696" gradientUnits="userSpaceOnUse">
<stop stop-color="#201E1E"/>
<stop offset="1" stop-color="#201E1E" stop-opacity="0"/>
</linearGradient>
</defs>
</svg>
