<svg xmlns="http://www.w3.org/2000/svg" width="18" height="17" viewBox="0 0 18 17" fill="none">
  <path d="M5.55273 15.5834H12.4678" stroke="white" stroke-width="1.5" stroke-linecap="round" stroke-linejoin="round"/>
  <path d="M2.09521 12.0417V2.83335C2.09521 2.45763 2.24093 2.0973 2.50029 1.83162C2.75966 1.56594 3.11144 1.41669 3.47824 1.41669H14.5424C14.9092 1.41669 15.261 1.56594 15.5203 1.83162C15.7797 2.0973 15.9254 2.45763 15.9254 2.83335V12.0417C15.9254 12.4174 15.7797 12.7777 15.5203 13.0434C15.261 13.3091 14.9092 13.4584 14.5424 13.4584H3.47824C3.11144 13.4584 2.75966 13.3091 2.50029 13.0434C2.24093 12.7777 2.09521 12.4174 2.09521 12.0417Z" stroke="white" stroke-width="1.5"/>
  <path d="M6.93555 7.43754L8.31857 8.85421L11.0846 6.02087" stroke="white" stroke-width="1.5" stroke-linecap="round" stroke-linejoin="round"/>
</svg>