<svg width="16" height="16" viewBox="0 0 16 16" fill="none" xmlns="http://www.w3.org/2000/svg">
<path d="M14.2222 1.77778V3.55556H10.6667V1.77778H14.2222ZM5.33333 1.77778V7.11111H1.77778V1.77778H5.33333ZM14.2222 8.88889V14.2222H10.6667V8.88889H14.2222ZM5.33333 12.4444V14.2222H1.77778V12.4444H5.33333ZM16 0H8.88889V5.33333H16V0ZM7.11111 0H0V8.88889H7.11111V0ZM16 7.11111H8.88889V16H16V7.11111ZM7.11111 10.6667H0V16H7.11111V10.6667Z" fill="white" fill-opacity="0.6"/>
<path d="M14.7222 1.77778V1.27778H14.2222H10.6667H10.1667V1.77778V3.55556V4.05556H10.6667H14.2222H14.7222V3.55556V1.77778ZM5.83333 1.77778V1.27778H5.33333H1.77778H1.27778V1.77778V7.11111V7.61111H1.77778H5.33333H5.83333V7.11111V1.77778ZM14.7222 8.88889V8.38889H14.2222H10.6667H10.1667V8.88889V14.2222V14.7222H10.6667H14.2222H14.7222V14.2222V8.88889ZM5.83333 12.4444V11.9444H5.33333H1.77778H1.27778V12.4444V14.2222V14.7222H1.77778H5.33333H5.83333V14.2222V12.4444ZM9.38889 4.83333V0.5H15.5V4.83333H9.38889ZM6.61111 0.5V8.38889H0.5V0.5H6.61111ZM9.38889 15.5V7.61111H15.5V15.5H9.38889ZM0.5 15.5V11.1667H6.61111V15.5H0.5Z" stroke="white" stroke-opacity="0.6"/>
</svg>
