<svg width="19" height="16" viewBox="0 0 19 16" fill="none" xmlns="http://www.w3.org/2000/svg">
<path d="M11.0427 4.44444H14.5982L11.0427 0.888889V4.44444ZM4.47822 16C4.08355 16 3.74578 15.8593 3.46489 15.5778C3.18341 15.2969 3.04267 14.9591 3.04267 14.5644V12H15.4871V14.5644C15.4871 14.9591 15.3464 15.2969 15.0649 15.5778C14.784 15.8593 14.4462 16 14.0516 16H4.47822ZM0 10.2222V9.33333H18.5298V10.2222H0ZM3.04267 7.55556V1.43556C3.04267 1.04089 3.18341 0.703111 3.46489 0.422222C3.74578 0.140741 4.08355 0 4.47822 0H11.4871L15.4871 4V7.55556H3.04267Z" fill="white" fill-opacity="0.6"/>
</svg>
