<svg width="18" height="17" viewBox="0 0 18 17" fill="none" xmlns="http://www.w3.org/2000/svg">
<path d="M0 2.8125C0 2.06658 0.296316 1.35121 0.823762 0.823762C1.35121 0.296316 2.06658 0 2.8125 0H12.9375C13.6834 0 14.3988 0.296316 14.9262 0.823762C15.4537 1.35121 15.75 2.06658 15.75 2.8125V5.886C15.3367 5.63932 14.9602 5.33558 14.6318 4.98375C14.4722 4.817 14.2778 4.68755 14.0625 4.60462V2.8125C14.0625 2.51413 13.944 2.22798 13.733 2.017C13.522 1.80603 13.2359 1.6875 12.9375 1.6875H2.8125C2.51413 1.6875 2.22798 1.80603 2.017 2.017C1.80603 2.22798 1.6875 2.51413 1.6875 2.8125V12.9375C1.6875 13.2359 1.80603 13.522 2.017 13.733C2.22798 13.944 2.51413 14.0625 2.8125 14.0625H8.51737C8.78939 14.6775 9.15483 15.2467 9.60075 15.75H2.8125C2.06658 15.75 1.35121 15.4537 0.823762 14.9262C0.296316 14.3988 0 13.6834 0 12.9375V2.8125ZM13.8195 5.76225C14.9355 6.92775 16.1719 7.50037 17.55 7.50037C17.7705 7.50037 17.955 7.66575 17.9932 7.884L18 7.96838V10.782C18 13.7992 16.5229 15.8512 13.6429 16.8514C13.5504 16.8837 13.4496 16.8837 13.3571 16.8514C10.5649 15.8805 9.09113 13.923 9.00338 11.0543L9 10.782V7.9695C9 7.71075 9.2025 7.50037 9.45 7.50037C10.8259 7.50037 12.0634 6.92662 13.1828 5.76225C13.2237 5.71887 13.273 5.68431 13.3278 5.66069C13.3825 5.63706 13.4415 5.62488 13.5011 5.62488C13.5608 5.62488 13.6198 5.63706 13.6745 5.66069C13.7292 5.68431 13.7786 5.71887 13.8195 5.76225ZM13.5 10.6538L11.97 9.12375C11.89 9.04923 11.7843 9.00866 11.675 9.01059C11.5657 9.01252 11.4614 9.05679 11.3841 9.13409C11.3068 9.21138 11.2625 9.31566 11.2606 9.42496C11.2587 9.53425 11.2992 9.64003 11.3737 9.72L12.9038 11.25L11.3794 12.7744C11.3049 12.8543 11.2643 12.9601 11.2662 13.0694C11.2681 13.1787 11.3124 13.283 11.3897 13.3603C11.467 13.4376 11.5713 13.4819 11.6806 13.4838C11.7899 13.4857 11.8957 13.4451 11.9756 13.3706L13.5 11.8462L15.0244 13.3706C15.1043 13.4451 15.2101 13.4857 15.3194 13.4838C15.4287 13.4819 15.533 13.4376 15.6103 13.3603C15.6876 13.283 15.7319 13.1787 15.7338 13.0694C15.7357 12.9601 15.6951 12.8543 15.6206 12.7744L14.0962 11.25L15.6206 9.72563C15.6951 9.64565 15.7357 9.53988 15.7338 9.43058C15.7319 9.32129 15.6876 9.21701 15.6103 9.13971C15.533 9.06242 15.4287 9.01814 15.3194 9.01621C15.2101 9.01429 15.1043 9.05485 15.0244 9.12937L13.5 10.6538Z" fill="white"/>
</svg>
