  <svg
            width="24"
            height="24"
            viewBox="0 0 24 24"
            fill="none"
            xmlns="http://www.w3.org/2000/svg"
          >
            <path
              d="M9.14568 8.92007C9.14316 8.72134 9.21963 8.52973 9.35829 8.38734C9.49695 8.24494 9.68645 8.16341 9.88519 8.16065L15.8951 8.08078C16.0938 8.07826 16.2854 8.15473 16.4278 8.29338C16.5702 8.43204 16.6517 8.62155 16.6545 8.82028L16.7344 14.8302C16.73 15.0245 16.6504 15.2095 16.5125 15.3464C16.3745 15.4832 16.1888 15.5613 15.9945 15.5641C15.8002 15.5665 15.6125 15.4934 15.471 15.3602C15.3294 15.227 15.245 15.0442 15.2354 14.8501L15.1796 10.6502L9.98911 15.9806C9.85034 16.1231 9.66064 16.2046 9.46175 16.2073C9.26285 16.2099 9.07105 16.1334 8.92855 15.9947C8.78604 15.8559 8.70449 15.6662 8.70185 15.4673C8.6992 15.2684 8.77568 15.0766 8.91445 14.9341L14.1049 9.60376L9.90511 9.65958C9.70637 9.6621 9.51476 9.58563 9.37237 9.44697C9.22998 9.30831 9.14844 9.11881 9.14568 8.92007Z"
              fill="white"
              fill-opacity="0.75"
            />
          </svg>